<svg id="Line" height="512" viewBox="0 0 64 64" width="512" xmlns="http://www.w3.org/2000/svg"><path d="m51 40.5h-3v-6a1 1 0 0 0 -2 0v7a1 1 0 0 0 1 1h4a1 1 0 0 0 0-2z" fill="#c4a2fc"/><path d="m60 24.5h-9.21a2.988 2.988 0 0 0 -2.23-1h-3.12a2.988 2.988 0 0 0 -2.23 1h-11.21v34h11.21a2.988 2.988 0 0 0 2.23 1h3.12a2.988 2.988 0 0 0 2.23-1h9.21a3.009 3.009 0 0 0 3-3v-28a3.009 3.009 0 0 0 -3-3zm-15.51 1.68a1 1 0 0 1 .95-.68h3.12a1 1 0 0 1 .95.68l.92 2.79a12.751 12.751 0 0 0 -6.86 0zm5.02 30.64a1 1 0 0 1 -.95.68h-3.12a1 1 0 0 1 -.95-.68l-.92-2.79a12.751 12.751 0 0 0 6.86 0zm-2.51-4.32a11 11 0 1 1 11-11 11.007 11.007 0 0 1 -11 11z" fill="#c4a2fc"/><path d="m17 20.5a3 3 0 0 0 -3 3v36a3 3 0 0 0 3 3h13v-42zm6 24a3 3 0 1 1 3-3 3 3 0 0 1 -3 3z" fill="#c4a2fc"/><g fill="#151a6a"><path d="m45 26.5a20.005 20.005 0 0 0 -11.226-17.945l-1.4-4.881a3.012 3.012 0 0 0 -2.882-2.174h-8.984a3.012 3.012 0 0 0 -2.884 2.174l-1.4 4.881a20.053 20.053 0 0 0 -10.824 13.945h-1.4a3 3 0 0 0 -3 3v2a3 3 0 0 0 3 3h1.4a20.053 20.053 0 0 0 10.826 13.945l1.4 4.881a3.012 3.012 0 0 0 2.882 2.174h8.984a3.012 3.012 0 0 0 2.884-2.174l1.4-4.881a20.005 20.005 0 0 0 11.224-17.945zm-25.454-22.275a1 1 0 0 1 .962-.725h8.984a1 1 0 0 1 .962.725l.959 3.349a19.683 19.683 0 0 0 -12.826 0zm-14.546 24.275h-1a1 1 0 0 1 -1-1v-2a1 1 0 0 1 1-1h1zm25.454 20.275a1 1 0 0 1 -.962.725h-8.984a1 1 0 0 1 -.962-.725l-.959-3.349a19.683 19.683 0 0 0 12.826 0zm-5.454-4.275a18 18 0 1 1 18-18 18.021 18.021 0 0 1 -18 18z"/><path d="m30 25.5h-4v-8a1 1 0 0 0 -2 0v9a1 1 0 0 0 1 1h5a1 1 0 0 0 0-2z"/><path d="m25 14.5a1 1 0 0 0 1-1v-2a1 1 0 0 0 -2 0v2a1 1 0 0 0 1 1z"/><path d="m25 38.5a1 1 0 0 0 -1 1v2a1 1 0 0 0 2 0v-2a1 1 0 0 0 -1-1z"/><path d="m35 35.086a1 1 0 0 0 -1.414 1.414l1.414 1.414a1 1 0 0 0 1.414-1.414z"/><path d="m15 35.086-1.414 1.414a1 1 0 1 0 1.414 1.414l1.414-1.414a1 1 0 0 0 -1.414-1.414z"/><path d="m35 15.086-1.414 1.414a1 1 0 0 0 1.414 1.414l1.414-1.414a1 1 0 1 0 -1.414-1.414z"/><path d="m15 15.086a1 1 0 1 0 -1.414 1.414l1.414 1.414a1 1 0 0 0 1.414-1.414z"/><path d="m40 25.5h-2a1 1 0 0 0 0 2h2a1 1 0 0 0 0-2z"/><path d="m12 25.5h-2a1 1 0 0 0 0 2h2a1 1 0 0 0 0-2z"/></g></svg>